{
    "asset" : {
        "generator" : "Khronos glTF Blender I/O v1.3.48",
        "version" : "2.0"
    },
    "scene" : 0,
    "scenes" : [
        {
            "name" : "Scene",
            "nodes" : [
                0
            ]
        }
    ],
    "nodes" : [
        {
            "mesh" : 0,
            "name" : "PokeBall"
        }
    ],
    "materials" : [
        {
            "doubleSided" : true,
            "emissiveFactor" : [
                0,
                0,
                0
            ],
            "name" : "Material__68",
            "pbrMetallicRoughness" : {
                "baseColorTexture" : {
                    "index" : 0,
                    "texCoord" : 0
                },
                "metallicFactor" : 1,
                "roughnessFactor" : 0.5
            }
        }
    ],
    "meshes" : [
        {
            "name" : "PokeBall",
            "primitives" : [
                {
                    "attributes" : {
                        "POSITION" : 0,
                        "NORMAL" : 1,
                        "TEXCOORD_0" : 2
                    },
                    "indices" : 3,
                    "material" : 0
                }
            ]
        }
    ],
    "textures" : [
        {
            "source" : 0
        }
    ],
    "images" : [
        {
            "bufferView" : 4,
            "mimeType" : "image/png",
            "name" : "ob0204_00"
        }
    ],
    "accessors" : [
        {
            "bufferView" : 0,
            "componentType" : 5126,
            "count" : 833,
            "max" : [
                3.015699863433838,
                3.041679859161377,
                2.8173398971557617
            ],
            "min" : [
                -3.015699863433838,
                -3.004000186920166,
                -2.9848499298095703
            ],
            "type" : "VEC3"
        },
        {
            "bufferView" : 1,
            "componentType" : 5126,
            "count" : 833,
            "type" : "VEC3"
        },
        {
            "bufferView" : 2,
            "componentType" : 5126,
            "count" : 833,
            "type" : "VEC2"
        },
        {
            "bufferView" : 3,
            "componentType" : 5123,
            "count" : 3078,
            "type" : "SCALAR"
        }
    ],
    "bufferViews" : [
        {
            "buffer" : 0,
            "byteLength" : 9996,
            "byteOffset" : 0
        },
        {
            "buffer" : 0,
            "byteLength" : 9996,
            "byteOffset" : 9996
        },
        {
            "buffer" : 0,
            "byteLength" : 6664,
            "byteOffset" : 19992
        },
        {
            "buffer" : 0,
            "byteLength" : 6156,
            "byteOffset" : 26656
        },
        {
            "buffer" : 0,
            "byteLength" : 22258,
            "byteOffset" : 32812
        }
    ],
    "buffers" : [
        {
            "byteLength" : 55072,
            "uri" : "data:application/octet-stream;base64,"
        }
    ]
}
