{
    "asset" : {
        "generator" : "Khronos glTF Blender I/O v1.3.48",
        "version" : "2.0"
    },
    "scene" : 0,
    "scenes" : [
        {
            "name" : "Scene",
            "nodes" : [
                0,
                1
            ]
        }
    ],
    "nodes" : [
        {
            "name" : "EnvironmentAmbientLight",
            "scale" : [
                0.02539999969303608,
                0.02539999969303608,
                0.02539999969303608
            ]
        },
        {
            "mesh" : 0,
            "name" : "pm0000_00_BodySkin"
        }
    ],
    "materials" : [
        {
            "doubleSided" : true,
            "emissiveFactor" : [
                0,
                0,
                0
            ],
            "name" : "Body",
            "pbrMetallicRoughness" : {
                "baseColorTexture" : {
                    "index" : 0,
                    "texCoord" : 0
                },
                "metallicFactor" : 0,
                "roughnessFactor" : 0.5
            }
        }
    ],
    "meshes" : [
        {
            "name" : "pm0000_00_BodySkin",
            "primitives" : [
                {
                    "attributes" : {
                        "POSITION" : 0,
                        "NORMAL" : 1,
                        "TEXCOORD_0" : 2
                    },
                    "indices" : 3,
                    "material" : 0
                }
            ]
        }
    ],
    "textures" : [
        {
            "source" : 0
        }
    ],
    "images" : [
        {
            "bufferView" : 4,
            "mimeType" : "image/png",
            "name" : "pm0000_00_Body_col"
        }
    ],
    "accessors" : [
        {
            "bufferView" : 0,
            "componentType" : 5126,
            "count" : 401,
            "max" : [
                15.209479331970215,
                15.209479331970215,
                0.1031017005443573
            ],
            "min" : [
                -15.209479331970215,
                -15.209489822387695,
                -37.72372817993164
            ],
            "type" : "VEC3"
        },
        {
            "bufferView" : 1,
            "componentType" : 5126,
            "count" : 401,
            "type" : "VEC3"
        },
        {
            "bufferView" : 2,
            "componentType" : 5126,
            "count" : 401,
            "type" : "VEC2"
        },
        {
            "bufferView" : 3,
            "componentType" : 5123,
            "count" : 2280,
            "type" : "SCALAR"
        }
    ],
    "bufferViews" : [
        {
            "buffer" : 0,
            "byteLength" : 4812,
            "byteOffset" : 0
        },
        {
            "buffer" : 0,
            "byteLength" : 4812,
            "byteOffset" : 4812
        },
        {
            "buffer" : 0,
            "byteLength" : 3208,
            "byteOffset" : 9624
        },
        {
            "buffer" : 0,
            "byteLength" : 4560,
            "byteOffset" : 12832
        },
        {
            "buffer" : 0,
            "byteLength" : 172936,
            "byteOffset" : 17392
        }
    ],
    "buffers" : [
        {
            "byteLength" : 190328,
            "uri" : "data:application/octet-stream;base64,"
        }
    ]
}
